<?xml version="1.0" encoding="UTF-8"?>
<!DOCTYPE svg PUBLIC "-//W3C//DTD SVG 1.1//EN" "http://www.w3.org/Graphics/SVG/1.1/DTD/svg11.dtd">
<!-- Creator: CorelDRAW -->
<svg xmlns="http://www.w3.org/2000/svg" xml:space="preserve" width="85.3289mm" height="113.928mm" version="1.1" style="shape-rendering:geometricPrecision; text-rendering:geometricPrecision; image-rendering:optimizeQuality; fill-rule:evenodd; clip-rule:evenodd"
viewBox="0 0 7259.46 9692.59"
 xmlns:xlink="http://www.w3.org/1999/xlink"
 xmlns:xodm="http://www.corel.com/coreldraw/odm/2003">
 <defs>
  <style type="text/css">
   <![CDATA[
    .fil0 {fill:#676767}
   ]]>
  </style>
 </defs>
 <g id="Capa_x0020_1">
  <metadata id="CorelCorpID_0Corel-Layer"/>
  <path class="fil0" d="M3388.88 9.84c-1164.3,87.73 -2068.36,634.85 -2719.99,1518.59 -277.96,376.91 -527.69,930.67 -620.57,1501.44 -116.44,715.47 -11.14,1209.6 195.2,1838.15 160.23,488.09 413.69,1042.03 646.34,1465.26 455.06,827.83 973.49,1674.75 1581.3,2393.16l305.71 351.42c30.38,29.66 44.15,38.45 70.71,68.97 124.03,142.67 399.96,392.56 572.49,483.27 223.21,117.43 354.73,61.52 562.14,-102.41 302.39,-238.95 536.24,-511.12 782.04,-801.3 40.28,-47.55 80.22,-99.27 120.18,-149.23 865.28,-1082.15 1867.2,-2721.02 2254.31,-4112.02 243.76,-875.86 110.15,-1810.04 -326.88,-2589.75 -96.37,-171.91 -197.34,-327.05 -317.81,-478.88 -115.03,-145.03 -242.33,-293.77 -381.55,-415.76 -126.17,-110.56 -116.85,-114.31 -285.12,-242.54 -674.88,-514.38 -1545.73,-795.62 -2438.51,-728.38zm-1087.27 6673.1c26.95,-48.49 -5.02,-75.39 -29.83,-105.64 -198.82,-242.31 -394.66,-621.17 -506.08,-915.63 -19.81,-52.42 -60.39,-209.56 -105.07,-221.34 -53.51,-14.13 -396.83,148.99 -455.77,179.35 -232.9,119.95 -208.36,111.44 -20.96,311.26 103.67,110.56 202.06,206.57 326.76,309.16 120.34,99.02 229.7,176.23 370.58,264.68 67.01,42.06 359.39,233.15 420.38,178.17zm-628.12 -4818.65c30.6,-34.96 149.38,-362.01 184.28,-439.24 99.54,-220.45 258.05,-508.08 413.67,-695.74 15.42,-18.6 69.43,-74.6 26.56,-112.85 -39.69,-35.41 -176.89,51.44 -216.71,72.71 -365.03,194.84 -636.44,405.7 -897.74,686.42 -29.2,31.35 -136.62,136.1 -144.67,170.41 -15.46,65.93 119.05,116.44 173.28,144.73 75.41,39.34 380.48,188.67 461.34,173.56zm3908.69 1.01c93.99,15.23 379.18,-132.31 462.58,-173.73 261.51,-129.98 211.66,-112.11 43.98,-310.2 -95.4,-112.72 -206.96,-203.82 -327.37,-308 -98.51,-85.25 -705.6,-518.28 -793.6,-459.38 -61.23,41.01 31.15,120.46 81.5,191.25 199.55,280.62 313.55,500.45 442.76,828.41 29.19,74.07 58.37,175.84 90.15,231.64zm644.96 3867.1c-38.18,-71.29 -545.18,-307.29 -646.3,-290.86 -47.34,90.91 -98.05,257.67 -144.88,369.38 -187.72,447.7 -473.16,798.18 -480.16,813.94 -49.82,112.05 88.68,63.61 130.54,42.6 244.74,-122.76 448.46,-251.04 633.42,-400.36 78.13,-63.08 503.45,-431.27 507.39,-534.7zm-5430.28 -300.18c69.22,5.27 306.45,-134.09 383.35,-171.58 618.87,-302.08 348.33,127 252.94,-1154.91 -16.7,-224.6 18.61,-285.38 -93.59,-285.38l-969.45 0c-113.86,0.04 -77.41,92.19 -66.89,189.17 8.64,79.77 19.73,158.71 34.03,236.64 75.68,411.68 241.96,854.8 459.61,1186.06zm4892 -346.14c33.31,41.79 126.84,62.43 186.04,85.69 68.36,26.81 127.17,53.54 195.82,83.85 67.4,29.76 124.94,56.98 189.35,91.39 54.73,29.28 135.19,91.41 195.91,84.8 104.43,-92.93 295.7,-558.57 356.84,-743.03 74.21,-224.01 121,-446.46 146.48,-680.91 10.86,-99.79 45.71,-187.47 -72.46,-187.47l-969.45 -0.04c-105.26,0 -73.59,81.42 -88.86,296.47 -8.05,113.8 -19.45,227.1 -34.39,340.67 -12.32,93.62 -114.97,594.9 -105.29,628.59zm-5386.1 -1612.41c75.25,25.14 981.16,20.39 1107.03,3.24 24.13,-77.25 34.18,-418.48 47.34,-535.68 97.57,-865.27 246.17,-679.92 -103.75,-820.53 -147.64,-59.33 -267.49,-120.03 -402.2,-190.06 -159.28,-82.78 -124.12,-122.21 -283.15,167.87 -66.58,121.45 -129.66,266.79 -179.05,402.78 -60.57,166.65 -240.56,802.86 -186.22,972.38zm6122.89 -1600.33c-46.95,11.02 -180.38,94.26 -237.09,122.59l-384.2 165.89c-162.59,62.43 -130.8,5.16 -61.63,362.71 40.1,207.2 67.24,424.75 83.6,635.57 29.74,382.56 -79.89,326.41 414.23,326.41 99.02,0 667.75,20.41 711.58,-15.42 59.4,-48.54 -50.14,-534.01 -71.12,-619.17 -46.32,-187.78 -110.64,-373.6 -183.04,-539.58 -38.34,-87.88 -76.67,-161.7 -120.63,-245.11 -32.24,-61.21 -98.36,-206.43 -151.71,-193.9zm-4657.34 1599.7c18.35,6.72 39.83,13.48 66.73,13.48l1551.09 0c27.96,0 48,-7.16 65.96,-14.88 25.98,-74.9 12.17,-732.63 12.17,-863.06 0,-115.65 -48.68,-82.49 -293.67,-97.28 -328.83,-19.87 -721.72,-73.57 -1035.93,-148.45 -243.94,-58.12 -223.51,-138.27 -309.52,386.3 -22.97,140.01 -90.91,611.73 -56.82,723.91zm2053.34 3.39c64.76,21.75 1049.71,10.09 1255.6,10.09 469.37,0 437.73,50.36 418.67,-231.33 -15.11,-222.83 -73.6,-672.14 -131.96,-879.25 -24.91,-88.44 -98.44,-46.1 -170.31,-28.52 -142.65,34.86 -283.42,62.68 -429.64,86.96 -148.29,24.64 -298.58,44.6 -450.24,59.13 -544.7,52.19 -515.72,-57.23 -515.71,233.52 0.04,161.59 -24.68,685.45 23.59,749.39zm-1901.77 1492.52c47.3,36.01 285.15,-41.07 364.71,-57.32 134.31,-27.42 260.37,-48.1 395.86,-67.18l631.44 -56.81c95.82,-3.82 152.35,19.36 152.35,-89.34 0,-130.37 13.82,-788.36 -12.16,-863.12 -17.98,-7.74 -38,-14.76 -65.96,-14.76l-1551.09 -0.06c-81.4,0.04 -80.36,26.75 -76.53,102.12 10.44,205.99 79.29,953.27 161.37,1046.47zm1878.18 -1067.75c0,126.93 -19.3,805.05 17.59,873.13l807.82 75.74 552.6 104.68c196.17,49.4 197.14,107.36 285.71,-561.97l42.19 -471.56c3.52,-72.59 -3.66,-100.92 -82.04,-100.92l-1540.32 0.06c-61.37,0 -83.54,21.34 -83.54,80.84zm0.04 -3490.07l-0.04 1691.16c-0.02,34.94 5.6,53.8 17.53,76.09 196.62,48.1 1235,-113.24 1415.15,-190.57 20.95,-97.74 -159.7,-468.65 -208.98,-562.62 -98.38,-187.66 -190.66,-335.72 -307.77,-489.22 -165.02,-216.27 -394.73,-426.78 -656.54,-539.11 -72.95,-31.28 -259.34,-126.67 -259.34,14.27zm-357.49 6550.59c38.86,-33.78 23.69,-92.95 23.65,-184.46l0 -1432.63c0,-234.34 112.39,-264.23 -559.06,-190.44 -243.84,26.79 -479.09,63.48 -710.78,119.02 -179.34,42.96 -197.65,21.11 -128.61,206.85 108.1,290.91 244.1,563.43 421.01,806.84 161.23,221.9 388.93,464.44 642.16,586.27 58.22,28.01 247.93,127.87 311.63,88.56zm357.45 -1757.12l0 1691.16c0,204.4 450.37,-84.4 507.1,-126.03 315.16,-231.46 527.52,-525.61 713.67,-879.97 47.52,-90.5 232.36,-475.15 211.95,-570.74 -213.19,-104.68 -994.07,-182 -1305.87,-197.32 -89.12,-4.38 -126.85,-13.77 -126.85,82.9zm-346.57 -3037.67c35.25,-59.46 12.75,-1433.66 12.77,-1626.56 0.04,-194.62 31.16,-246.19 -177.72,-174.87 -471.84,161.04 -800.34,605.33 -1030.04,1026.89 -36.3,66.62 -256.33,522.41 -223.15,585.09 37.1,70.11 1318.17,270.11 1418.14,189.46z"/>
 </g>
</svg>
